<svg viewBox="0 0 512 512" xmlns="http://www.w3.org/2000/svg"><path d="m58.37 512c-32.14 0-58.37-26.21-58.37-58.69v-328.91c0-32.12 26.23-58.32 58.37-58.32h128.55l50.98 50.94h-162.91c-13.3 0-24.01 10.71-24.01 23.99v296.42c0 13.29 10.71 23.99 24.01 23.99h296.63c13.3 0 24.01-10.71 24.01-23.99v-163.53l50.98 50.94v128.46c0 32.12-26.23 58.32-58.37 58.32h-329.87zm148.87-207.46c-13.3-13.29-13.3-34.7 0-47.62l160.69-160.57-66.49-66.81c-11.53-12.8-1.97-29.54 12.19-29.54h172.88c14.04 0 25.49 11.44 25.49 25.47v172.76c0 14.32-16.85 23.43-29.55 12.55l-66.49-66.81-160.7 160.57c-13.84 13.83-35.93 12.8-48.02 0z"/></svg>